<svg xmlns="http://www.w3.org/2000/svg" width="1000" height="1000"><rect width="1000" height="1000" x="0" y="0" fill="#FFFFFF" id="background"/><g transform="translate(20,20)" id="viz"><g id="nodes"><g transform="translate(481,481)"><path id="p_1443" d="M-8.817456953860942e-14,480A480,480,0,1,1,8.817456953860942e-14,-480A480,480,0,1,1,-8.817456953860942e-14,480Z" fill="none" stroke="#ccc"/></g><g transform="translate(321.06671697888834,481)" id="United States of America"><path id="p_1121.294436700812" d="M-5.845748375361222e-14,318.2277197219236A318.2277197219236,318.2277197219236,0,1,1,5.845748375361222e-14,-318.2277197219236A318.2277197219236,318.2277197219236,0,1,1,-5.845748375361222e-14,318.2277197219236Z" fill="none" stroke="#ccc"/></g><g transform="translate(800.147218350406,481)" id="France"><path id="p_1441.1610027430354" d="M-2.921035831151112e-14,159.0137843926293A159.0137843926293,159.0137843926293,0,1,1,2.921035831151112e-14,-159.0137843926293A159.0137843926293,159.0137843926293,0,1,1,-2.921035831151112e-14,159.0137843926293Z" fill="none" stroke="#ccc"/></g><g transform="translate(684.7345827362351,751.2881396854599)" id="Italy"><path id="p_1570.0674652836833" d="M-2.4439922773397476e-14,133.0447428619882A133.0447428619882,133.0447428619882,0,1,1,2.4439922773397476e-14,-133.0447428619882A133.0447428619882,133.0447428619882,0,1,1,-2.4439922773397476e-14,133.0447428619882Z" fill="none" stroke="#ccc"/></g><g transform="translate(659.4893241671907,314.5355221117535)" id="Russia"><path id="p_1032.1056912101583" d="M-1.0485581105645654e-14,57.08084493121404A57.08084493121404,57.08084493121404,0,1,1,1.0485581105645654e-14,-57.08084493121404A57.08084493121404,57.08084493121404,0,1,1,-1.0485581105645654e-14,57.08084493121404Z" fill="none" stroke="#ccc"/></g><g transform="translate(592.8906346925372,219.55776696650946)" id="Belarus"><path id="p_870.5292465902608" d="M-1.0485581105645654e-14,57.08084493121404A57.08084493121404,57.08084493121404,0,1,1,1.0485581105645654e-14,-57.08084493121404A57.08084493121404,57.08084493121404,0,1,1,-1.0485581105645654e-14,57.08084493121404Z" fill="none" stroke="#ccc"/></g><g transform="translate(208.88135495499557,454.1546675512915)" id="drama film"><path id="p_797.0707637825969" d="M-2.4438085511914386e-14,133.03474127630994A133.03474127630994,133.03474127630994,0,1,1,2.4438085511914386e-14,-133.03474127630994A133.03474127630994,133.03474127630994,0,1,1,-2.4438085511914386e-14,133.03474127630994Z" fill="none" stroke="#ccc"/></g><g transform="translate(476.7898347645802,454.1546675512915)" id="Western film"><path id="p_1064.9792435921815" d="M-2.4438085511914386e-14,133.03474127630994A133.03474127630994,133.03474127630994,0,1,1,2.4438085511914386e-14,-133.03474127630994A133.03474127630994,133.03474127630994,0,1,1,-2.4438085511914386e-14,133.03474127630994Z" fill="none" stroke="#ccc"/></g><g transform="translate(342.83559485978793,625.0759176768283)" id="adventure film"><path id="p_1051.1962694230397" d="M-1.511546462093647e-14,82.28475688642335A82.28475688642335,82.28475688642335,0,1,1,1.511546462093647e-14,-82.28475688642335A82.28475688642335,82.28475688642335,0,1,1,-1.511546462093647e-14,82.28475688642335Z" fill="none" stroke="#ccc"/></g><g transform="translate(342.8355948597879,283.2334174257546)" id="war film"><path id="p_709.3537691719658" d="M-1.511546462093647e-14,82.28475688642335A82.28475688642335,82.28475688642335,0,1,1,1.511546462093647e-14,-82.28475688642335A82.28475688642335,82.28475688642335,0,1,1,-1.511546462093647e-14,82.28475688642335Z" fill="none" stroke="#ccc"/></g><g transform="translate(182.52402995215536,669.7076855112396)" id="film based on a novel"><path id="p_935.5164723498183" d="M-1.511546462093647e-14,82.28475688642335A82.28475688642335,82.28475688642335,0,1,1,1.511546462093647e-14,-82.28475688642335A82.28475688642335,82.28475688642335,0,1,1,-1.511546462093647e-14,82.28475688642335Z" fill="none" stroke="#ccc"/></g><g transform="translate(477.7275178754894,267.6138027059469)" id="action film"><path id="p_798.0108035998053" d="M-9.491530048806606e-15,51.66948301836894A51.66948301836894,51.66948301836894,0,1,1,9.491530048806606e-15,-51.66948301836894A51.66948301836894,51.66948301836894,0,1,1,-9.491530048806606e-15,51.66948301836894Z" fill="none" stroke="#ccc"/></g><g transform="translate(444.32315690792404,604.9184832440535)" id="comedy film"><path id="p_1069.5879174833403" d="M-3.5538534913905394e-15,19.346277331362646A19.346277331362646,19.346277331362646,0,1,1,3.5538534913905394e-15,-19.346277331362646A19.346277331362646,19.346277331362646,0,1,1,-3.5538534913905394e-15,19.346277331362646Z" fill="none" stroke="#ccc"/></g><g transform="translate(723.3858309831335,481)" id="comedy film"><path id="p_1285.7992307515256" d="M-1.477170189523768e-14,80.41339976839208A80.41339976839208,80.41339976839208,0,1,1,1.477170189523768e-14,-80.41339976839208A80.41339976839208,80.41339976839208,0,1,1,-1.477170189523768e-14,80.41339976839208Z" fill="none" stroke="#ccc"/></g><g transform="translate(881.4801167472804,481)" id="drama film"><path id="p_1439.3220054860706" d="M-1.3931928942787358e-14,75.84188873879016A75.84188873879016,75.84188873879016,0,1,1,1.3931928942787358e-14,-75.84188873879016A75.84188873879016,75.84188873879016,0,1,1,-1.3931928942787358e-14,75.84188873879016Z" fill="none" stroke="#ccc"/></g><g transform="translate(805.7062436428128,561.9926799585637)" id="art film"><path id="p_1401.930138172342" d="M-6.104475083416762e-15,33.23121457096547A33.23121457096547,33.23121457096547,0,1,1,6.104475083416762e-15,-33.23121457096547A33.23121457096547,33.23121457096547,0,1,1,-6.104475083416762e-15,33.23121457096547Z" fill="none" stroke="#ccc"/></g><g transform="translate(805.7062436428128,400.00732004143634)" id="coming-of-age fiction"><path id="p_1239.9447782552145" d="M-6.104475083416762e-15,33.23121457096547A33.23121457096547,33.23121457096547,0,1,1,6.104475083416762e-15,-33.23121457096547A33.23121457096547,33.23121457096547,0,1,1,-6.104475083416762e-15,33.23121457096547Z" fill="none" stroke="#ccc"/></g><g transform="translate(751.5588496177791,379.91562324873274)" id="biographical film"><path id="p_1155.1590578931477" d="M-4.1670906664283395e-15,22.684585026635872A22.684585026635872,22.684585026635872,0,1,1,4.1670906664283395e-15,-22.684585026635872A22.684585026635872,22.684585026635872,0,1,1,-4.1670906664283395e-15,22.684585026635872Z" fill="none" stroke="#ccc"/></g><g transform="translate(620.0512267391802,769.519511796346)" id="comedy film"><path id="p_1454.5729167345903" d="M-1.1757009400491341e-14,64.00217819906403A64.00217819906403,64.00217819906403,0,1,1,1.1757009400491341e-14,-64.00217819906403A64.00217819906403,64.00217819906403,0,1,1,-1.1757009400491341e-14,64.00217819906403Z" fill="none" stroke="#ccc"/></g><g transform="translate(749.6607972088327,769.519511796346)" id="drama film"><path id="p_1583.9487040188026" d="M-1.1714064126029777e-14,63.76839501362387A63.76839501362387,63.76839501362387,0,1,1,1.1714064126029777e-14,-63.76839501362387A63.76839501362387,63.76839501362387,0,1,1,-1.1714064126029777e-14,63.76839501362387Z" fill="none" stroke="#ccc"/></g><g transform="translate(685.0345028952938,844.3026134014488)" id="art film"><path id="p_1563.568330867708" d="M-6.104475083416762e-15,33.23121457096547A33.23121457096547,33.23121457096547,0,1,1,6.104475083416762e-15,-33.23121457096547A33.23121457096547,33.23121457096547,0,1,1,-6.104475083416762e-15,33.23121457096547Z" fill="none" stroke="#ccc"/></g><g transform="translate(685.0345028952938,694.7364101912432)" id="coming-of-age fiction"><path id="p_1414.0021276575023" d="M-6.104475083416762e-15,33.23121457096547A33.23121457096547,33.23121457096547,0,1,1,6.104475083416762e-15,-33.23121457096547A33.23121457096547,33.23121457096547,0,1,1,-6.104475083416762e-15,33.23121457096547Z" fill="none" stroke="#ccc"/></g><g transform="translate(622.7036554168188,672.6599377212804)" id="biographical film"><path id="p_1327.4183023619323" d="M-5.7046575374128545e-15,31.054709223833132A31.054709223833132,31.054709223833132,0,1,1,5.7046575374128545e-15,-31.054709223833132A31.054709223833132,31.054709223833132,0,1,1,-5.7046575374128545e-15,31.054709223833132Z" fill="none" stroke="#ccc"/></g><g transform="translate(633.4247526397821,299.4871347240919)" id="drama film"><path id="p_959.0569602628002" d="M-4.619074955999521e-15,25.145072898926184A25.145072898926184,25.145072898926184,0,1,1,4.619074955999521e-15,-25.145072898926184A25.145072898926184,25.145072898926184,0,1,1,-4.619074955999521e-15,25.145072898926184Z" fill="none" stroke="#ccc"/></g><g transform="translate(685.5538956945993,299.4871347240919)" id="war film"><path id="p_1011.1861033176174" d="M-4.619074955999521e-15,25.145072898926184A25.145072898926184,25.145072898926184,0,1,1,4.619074955999521e-15,-25.145072898926184A25.145072898926184,25.145072898926184,0,1,1,-4.619074955999521e-15,25.145072898926184Z" fill="none" stroke="#ccc"/></g><g transform="translate(659.4893241671907,344.6322968870766)" id="historical film"><path id="p_1030.2666939531935" d="M-4.619074955999521e-15,25.145072898926184A25.145072898926184,25.145072898926184,0,1,1,4.619074955999521e-15,-25.145072898926184A25.145072898926184,25.145072898926184,0,1,1,-4.619074955999521e-15,25.145072898926184Z" fill="none" stroke="#ccc"/></g><g transform="translate(566.8260631651287,204.5093795788479)" id="drama film"><path id="p_797.4805156429028" d="M-4.619074955999521e-15,25.145072898926184A25.145072898926184,25.145072898926184,0,1,1,4.619074955999521e-15,-25.145072898926184A25.145072898926184,25.145072898926184,0,1,1,-4.619074955999521e-15,25.145072898926184Z" fill="none" stroke="#ccc"/></g><g transform="translate(618.9552062199457,204.5093795788479)" id="war film"><path id="p_849.6096586977197" d="M-4.619074955999521e-15,25.145072898926184A25.145072898926184,25.145072898926184,0,1,1,4.619074955999521e-15,-25.145072898926184A25.145072898926184,25.145072898926184,0,1,1,-4.619074955999521e-15,25.145072898926184Z" fill="none" stroke="#ccc"/></g><g transform="translate(592.8906346925372,249.65454174183262)" id="historical film"><path id="p_868.690249333296" d="M-4.619074955999521e-15,25.145072898926184A25.145072898926184,25.145072898926184,0,1,1,4.619074955999521e-15,-25.145072898926184A25.145072898926184,25.145072898926184,0,1,1,-4.619074955999521e-15,25.145072898926184Z" fill="none" stroke="#ccc"/></g><g transform="translate(158.13137056510897,454.1546675512915)" id="Dances with Wolves"><path id="p_693.7317977458591" d="M-1.4777646305279084e-14,80.44575962945865A80.44575962945865,80.44575962945865,0,1,1,1.4777646305279084e-14,-80.44575962945865A80.44575962945865,80.44575962945865,0,1,1,-1.4777646305279084e-14,80.44575962945865Z" fill="#1f77b4" stroke="none"/></g><g transform="translate(290.24661321293655,454.1546675512915)" id="The Magnificent Seven"><path id="p_795.2317665256322" d="M-9.15371173314922e-15,49.83048576140425A49.83048576140425,49.83048576140425,0,1,1,9.15371173314922e-15,-49.83048576140425A49.83048576140425,49.83048576140425,0,1,1,-9.15371173314922e-15,49.83048576140425Z" fill="#1f77b4" stroke="none"/></g><g transform="translate(426.0398503746936,454.1546675512915)" id="Dances with Wolves"><path id="p_961.6402775554437" d="M-1.4777646305279084e-14,80.44575962945865A80.44575962945865,80.44575962945865,0,1,1,1.4777646305279084e-14,-80.44575962945865A80.44575962945865,80.44575962945865,0,1,1,-1.4777646305279084e-14,80.44575962945865Z" fill="#1f77b4" stroke="none"/></g><g transform="translate(558.1550930225212,454.1546675512915)" id="The Magnificent Seven"><path id="p_1063.140246335217" d="M-9.15371173314922e-15,49.83048576140425A49.83048576140425,49.83048576140425,0,1,1,9.15371173314922e-15,-49.83048576140425A49.83048576140425,49.83048576140425,0,1,1,-9.15371173314922e-15,49.83048576140425Z" fill="#1f77b4" stroke="none"/></g><g transform="translate(342.83559485978793,625.0759176768283)" id="Dances with Wolves"><path id="p_1049.357272166075" d="M-1.4777646305279084e-14,80.44575962945865A80.44575962945865,80.44575962945865,0,1,1,1.4777646305279084e-14,-80.44575962945865A80.44575962945865,80.44575962945865,0,1,1,-1.4777646305279084e-14,80.44575962945865Z" fill="#1f77b4" stroke="none"/></g><g transform="translate(342.8355948597879,283.2334174257546)" id="Dances with Wolves"><path id="p_707.5147719150011" d="M-1.4777646305279084e-14,80.44575962945865A80.44575962945865,80.44575962945865,0,1,1,1.4777646305279084e-14,-80.44575962945865A80.44575962945865,80.44575962945865,0,1,1,-1.4777646305279084e-14,80.44575962945865Z" fill="#1f77b4" stroke="none"/></g><g transform="translate(182.52402995215536,669.7076855112396)" id="Dances with Wolves"><path id="p_933.6774750928536" d="M-1.4777646305279084e-14,80.44575962945865A80.44575962945865,80.44575962945865,0,1,1,1.4777646305279084e-14,-80.44575962945865A80.44575962945865,80.44575962945865,0,1,1,-1.4777646305279084e-14,80.44575962945865Z" fill="#1f77b4" stroke="none"/></g><g transform="translate(477.7275178754894,267.6138027059469)" id="The Magnificent Seven"><path id="p_796.1718063428406" d="M-9.15371173314922e-15,49.83048576140425A49.83048576140425,49.83048576140425,0,1,1,9.15371173314922e-15,-49.83048576140425A49.83048576140425,49.83048576140425,0,1,1,-9.15371173314922e-15,49.83048576140425Z" fill="#1f77b4" stroke="none"/></g><g transform="translate(444.32315690792404,604.9184832440535)" id="Africa Screams"><path id="p_1067.7489202263755" d="M-3.2160351757331525e-15,17.50728007439795A17.50728007439795,17.50728007439795,0,1,1,3.2160351757331525e-15,-17.50728007439795A17.50728007439795,17.50728007439795,0,1,1,-3.2160351757331525e-15,17.50728007439795Z" fill="#1f77b4" stroke="none"/></g><g transform="translate(687.4165260589745,472.8402490756635)" id="The Intouchables"><path id="p_1202.9479506739804" d="M-7.658544701541905e-15,41.69117553934235A41.69117553934235,41.69117553934235,0,1,1,7.658544701541905e-15,-41.69117553934235A41.69117553934235,41.69117553934235,0,1,1,-7.658544701541905e-15,41.69117553934235Z" fill="#1f77b4" stroke="none"/></g><g transform="translate(762.3389161692822,472.8402490756635)" id="Amarcord"><path id="p_1267.5713825589467" d="M-5.766656767759374e-15,31.39221731400077A31.39221731400077,31.39221731400077,0,1,1,5.766656767759374e-15,-31.39221731400077A31.39221731400077,31.39221731400077,0,1,1,-5.766656767759374e-15,31.39221731400077Z" fill="#1f77b4" stroke="none"/></g><g transform="translate(734.2059821522608,528.8870921778378)" id="The Monster"><path id="p_1293.5731872696065" d="M-5.4154088924805845e-15,29.48011293950769A29.48011293950769,29.48011293950769,0,1,1,5.4154088924805845e-15,-29.48011293950769A29.48011293950769,29.48011293950769,0,1,1,-5.4154088924805845e-15,29.48011293950769Z" fill="#1f77b4" stroke="none"/></g><g transform="translate(733.2169120077116,425.5756259655095)" id="Roma"><path id="p_1182.077408676088" d="M-4.0936643363518145e-15,22.284870702867053A22.284870702867053,22.284870702867053,0,1,1,4.0936643363518145e-15,-22.284870702867053A22.284870702867053,22.284870702867053,0,1,1,-4.0936643363518145e-15,22.284870702867053Z" fill="#1f77b4" stroke="none"/></g><g transform="translate(849.1684008047972,481)" id="The Intouchables"><path id="p_1372.8595763441397" d="M-7.658544701541905e-15,41.69117553934235A41.69117553934235,41.69117553934235,0,1,1,7.658544701541905e-15,-41.69117553934235A41.69117553934235,41.69117553934235,0,1,1,-7.658544701541905e-15,41.69117553934235Z" fill="#1f77b4" stroke="none"/></g><g transform="translate(924.0907909151051,481)" id="Amarcord"><path id="p_1437.483008229106" d="M-5.766656767759374e-15,31.39221731400077A31.39221731400077,31.39221731400077,0,1,1,5.766656767759374e-15,-31.39221731400077A31.39221731400077,31.39221731400077,0,1,1,-5.766656767759374e-15,31.39221731400077Z" fill="#1f77b4" stroke="none"/></g><g transform="translate(894.9687867535343,528.264623110154)" id="Roma"><path id="p_1446.5182805665554" d="M-4.0936643363518145e-15,22.284870702867053A22.284870702867053,22.284870702867053,0,1,1,4.0936643363518145e-15,-22.284870702867053A22.284870702867053,22.284870702867053,0,1,1,-4.0936643363518145e-15,22.284870702867053Z" fill="#1f77b4" stroke="none"/></g><g transform="translate(805.7062436428128,561.9926799585637)" id="Amarcord"><path id="p_1400.0911409153773" d="M-5.766656767759374e-15,31.39221731400077A31.39221731400077,31.39221731400077,0,1,1,5.766656767759374e-15,-31.39221731400077A31.39221731400077,31.39221731400077,0,1,1,-5.766656767759374e-15,31.39221731400077Z" fill="#1f77b4" stroke="none"/></g><g transform="translate(805.7062436428128,400.00732004143634)" id="Amarcord"><path id="p_1238.1057809982499" d="M-5.766656767759374e-15,31.39221731400077A31.39221731400077,31.39221731400077,0,1,1,5.766656767759374e-15,-31.39221731400077A31.39221731400077,31.39221731400077,0,1,1,-5.766656767759374e-15,31.39221731400077Z" fill="#1f77b4" stroke="none"/></g><g transform="translate(751.5588496177791,379.91562324873274)" id="The Intouchables"><path id="p_1153.3200606361831" d="M-3.8292723507709526e-15,20.845587769671177A20.845587769671177,20.845587769671177,0,1,1,3.8292723507709526e-15,-20.845587769671177A20.845587769671177,20.845587769671177,0,1,1,-3.8292723507709526e-15,20.845587769671177Z" fill="#1f77b4" stroke="none"/></g><g transform="translate(589.6629379086731,764.6817329097655)" id="Amarcord"><path id="p_1386.7368881324396" d="M-5.766656767759374e-15,31.39221731400077A31.39221731400077,31.39221731400077,0,1,1,5.766656767759374e-15,-31.39221731400077A31.39221731400077,31.39221731400077,0,1,1,-5.766656767759374e-15,31.39221731400077Z" fill="#1f77b4" stroke="none"/></g><g transform="translate(652.3742654191462,764.6817329097655)" id="The Monster"><path id="p_1447.5361112684195" d="M-5.4154088924805845e-15,29.48011293950769A29.48011293950769,29.48011293950769,0,1,1,5.4154088924805845e-15,-29.48011293950769A29.48011293950769,29.48011293950769,0,1,1,-5.4154088924805845e-15,29.48011293950769Z" fill="#1f77b4" stroke="none"/></g><g transform="translate(622.6821683922639,809.310940189337)" id="Roma"><path id="p_1455.2779792844678" d="M-4.0936643363518145e-15,22.284870702867053A22.284870702867053,22.284870702867053,0,1,1,4.0936643363518145e-15,-22.284870702867053A22.284870702867053,22.284870702867053,0,1,1,-4.0936643363518145e-15,22.284870702867053Z" fill="#1f77b4" stroke="none"/></g><g transform="translate(622.5228072723008,726.6125284194837)" id="Lo vedi come sei... lo vedi come sei?"><path id="p_1367.1936363811353" d="M-3.133559000715961e-15,17.058300689350688A17.058300689350688,17.058300689350688,0,1,1,3.133559000715961e-15,-17.058300689350688A17.058300689350688,17.058300689350688,0,1,1,-3.133559000715961e-15,17.058300689350688Z" fill="#1f77b4" stroke="none"/></g><g transform="translate(719.539596742892,764.4962984942765)" id="Amarcord"><path id="p_1516.4281125511693" d="M-5.766656767759374e-15,31.39221731400077A31.39221731400077,31.39221731400077,0,1,1,5.766656767759374e-15,-31.39221731400077A31.39221731400077,31.39221731400077,0,1,1,-5.766656767759374e-15,31.39221731400077Z" fill="#1f77b4" stroke="none"/></g><g transform="translate(781.9865232807258,764.4962984942765)" id="Intervista"><path id="p_1576.6985337418707" d="M-5.3668392217554676e-15,29.215711966868437A29.215711966868437,29.215711966868437,0,1,1,5.3668392217554676e-15,-29.215711966868437A29.215711966868437,29.215711966868437,0,1,1,-5.3668392217554676e-15,29.215711966868437Z" fill="#1f77b4" stroke="none"/></g><g transform="translate(752.6600704053553,809.0504223045987)" id="Roma"><path id="p_1584.995363412821" d="M-4.0936643363518145e-15,22.284870702867053A22.284870702867053,22.284870702867053,0,1,1,4.0936643363518145e-15,-22.284870702867053A22.284870702867053,22.284870702867053,0,1,1,-4.0936643363518145e-15,22.284870702867053Z" fill="#1f77b4" stroke="none"/></g><g transform="translate(685.0345028952938,844.3026134014488)" id="Amarcord"><path id="p_1561.7293336107434" d="M-5.766656767759374e-15,31.39221731400077A31.39221731400077,31.39221731400077,0,1,1,5.766656767759374e-15,-31.39221731400077A31.39221731400077,31.39221731400077,0,1,1,-5.766656767759374e-15,31.39221731400077Z" fill="#1f77b4" stroke="none"/></g><g transform="translate(685.0345028952938,694.7364101912432)" id="Amarcord"><path id="p_1412.1631304005377" d="M-5.766656767759374e-15,31.39221731400077A31.39221731400077,31.39221731400077,0,1,1,5.766656767759374e-15,-31.39221731400077A31.39221731400077,31.39221731400077,0,1,1,-5.766656767759374e-15,31.39221731400077Z" fill="#1f77b4" stroke="none"/></g><g transform="translate(622.7036554168188,672.6599377212804)" id="Intervista"><path id="p_1325.5793051049675" d="M-5.3668392217554676e-15,29.215711966868437A29.215711966868437,29.215711966868437,0,1,1,5.3668392217554676e-15,-29.215711966868437A29.215711966868437,29.215711966868437,0,1,1,-5.3668392217554676e-15,29.215711966868437Z" fill="#1f77b4" stroke="none"/></g><g transform="translate(633.4247526397821,299.4871347240919)" id="The Brest Fortress"><path id="p_957.2179630058355" d="M-4.281256640342135e-15,23.30607564196149A23.30607564196149,23.30607564196149,0,1,1,4.281256640342135e-15,-23.30607564196149A23.30607564196149,23.30607564196149,0,1,1,-4.281256640342135e-15,23.30607564196149Z" fill="#1f77b4" stroke="none"/></g><g transform="translate(685.5538956945993,299.4871347240919)" id="The Brest Fortress"><path id="p_1009.3471060606527" d="M-4.281256640342135e-15,23.30607564196149A23.30607564196149,23.30607564196149,0,1,1,4.281256640342135e-15,-23.30607564196149A23.30607564196149,23.30607564196149,0,1,1,-4.281256640342135e-15,23.30607564196149Z" fill="#1f77b4" stroke="none"/></g><g transform="translate(659.4893241671907,344.6322968870766)" id="The Brest Fortress"><path id="p_1028.4276966962288" d="M-4.281256640342135e-15,23.30607564196149A23.30607564196149,23.30607564196149,0,1,1,4.281256640342135e-15,-23.30607564196149A23.30607564196149,23.30607564196149,0,1,1,-4.281256640342135e-15,23.30607564196149Z" fill="#1f77b4" stroke="none"/></g><g transform="translate(566.8260631651287,204.5093795788479)" id="The Brest Fortress"><path id="p_795.6415183859381" d="M-4.281256640342135e-15,23.30607564196149A23.30607564196149,23.30607564196149,0,1,1,4.281256640342135e-15,-23.30607564196149A23.30607564196149,23.30607564196149,0,1,1,-4.281256640342135e-15,23.30607564196149Z" fill="#1f77b4" stroke="none"/></g><g transform="translate(618.9552062199457,204.5093795788479)" id="The Brest Fortress"><path id="p_847.770661440755" d="M-4.281256640342135e-15,23.30607564196149A23.30607564196149,23.30607564196149,0,1,1,4.281256640342135e-15,-23.30607564196149A23.30607564196149,23.30607564196149,0,1,1,-4.281256640342135e-15,23.30607564196149Z" fill="#1f77b4" stroke="none"/></g><g transform="translate(592.8906346925372,249.65454174183262)" id="The Brest Fortress"><path id="p_866.8512520763313" d="M-4.281256640342135e-15,23.30607564196149A23.30607564196149,23.30607564196149,0,1,1,4.281256640342135e-15,-23.30607564196149A23.30607564196149,23.30607564196149,0,1,1,-4.281256640342135e-15,23.30607564196149Z" fill="#1f77b4" stroke="none"/></g></g><g id="labels"><g transform="translate(158.13137056510897,454.1546675512915)"><text text-anchor="middle" dominant-baseline="text-before-edge" transform="translate(0,-5.5)"><tspan x="0" y="0" dy="0" style="font-family: Arial, sans-serif; font-size: 10px; fill: black; font-weight: bold;">Dances with Wolves</tspan></text></g><g transform="translate(290.24661321293655,454.1546675512915)"><text text-anchor="middle" dominant-baseline="text-before-edge" transform="translate(0,-5.5)"><tspan x="0" y="0" dy="0" style="font-family: Arial, sans-serif; font-size: 10px; fill: black; font-weight: bold;">The Magnificent Seven</tspan></text></g><g transform="translate(426.0398503746936,454.1546675512915)"><text text-anchor="middle" dominant-baseline="text-before-edge" transform="translate(0,-5.5)"><tspan x="0" y="0" dy="0" style="font-family: Arial, sans-serif; font-size: 10px; fill: black; font-weight: bold;">Dances with Wolves</tspan></text></g><g transform="translate(558.1550930225212,454.1546675512915)"><text text-anchor="middle" dominant-baseline="text-before-edge" transform="translate(0,-5.5)"><tspan x="0" y="0" dy="0" style="font-family: Arial, sans-serif; font-size: 10px; fill: black; font-weight: bold;">The Magnificent Seven</tspan></text></g><g transform="translate(342.83559485978793,625.0759176768283)"><text text-anchor="middle" dominant-baseline="text-before-edge" transform="translate(0,-5.5)"><tspan x="0" y="0" dy="0" style="font-family: Arial, sans-serif; font-size: 10px; fill: black; font-weight: bold;">Dances with Wolves</tspan></text></g><g transform="translate(342.8355948597879,283.2334174257546)"><text text-anchor="middle" dominant-baseline="text-before-edge" transform="translate(0,-5.5)"><tspan x="0" y="0" dy="0" style="font-family: Arial, sans-serif; font-size: 10px; fill: black; font-weight: bold;">Dances with Wolves</tspan></text></g><g transform="translate(182.52402995215536,669.7076855112396)"><text text-anchor="middle" dominant-baseline="text-before-edge" transform="translate(0,-5.5)"><tspan x="0" y="0" dy="0" style="font-family: Arial, sans-serif; font-size: 10px; fill: black; font-weight: bold;">Dances with Wolves</tspan></text></g><g transform="translate(477.7275178754894,267.6138027059469)"><text text-anchor="middle" dominant-baseline="text-before-edge" transform="translate(0,-5.5)"><tspan x="0" y="0" dy="0" style="font-family: Arial, sans-serif; font-size: 10px; fill: black; font-weight: bold;">The Magnificent Seven</tspan></text></g><g transform="translate(444.32315690792404,604.9184832440535)"><text text-anchor="middle" dominant-baseline="text-before-edge" transform="translate(0,-5.5)"><tspan x="0" y="0" dy="0" style="font-family: Arial, sans-serif; font-size: 10px; fill: black; font-weight: bold;">Africa Screams</tspan></text></g><g transform="translate(687.4165260589745,472.8402490756635)"><text text-anchor="middle" dominant-baseline="text-before-edge" transform="translate(0,-5.5)"><tspan x="0" y="0" dy="0" style="font-family: Arial, sans-serif; font-size: 10px; fill: black; font-weight: bold;">The Intouchables</tspan></text></g><g transform="translate(762.3389161692822,472.8402490756635)"><text text-anchor="middle" dominant-baseline="text-before-edge" transform="translate(0,-5.5)"><tspan x="0" y="0" dy="0" style="font-family: Arial, sans-serif; font-size: 10px; fill: black; font-weight: bold;">Amarcord</tspan></text></g><g transform="translate(734.2059821522608,528.8870921778378)"><text text-anchor="middle" dominant-baseline="text-before-edge" transform="translate(0,-5.5)"><tspan x="0" y="0" dy="0" style="font-family: Arial, sans-serif; font-size: 10px; fill: black; font-weight: bold;">The Monster</tspan></text></g><g transform="translate(733.2169120077116,425.5756259655095)"><text text-anchor="middle" dominant-baseline="text-before-edge" transform="translate(0,-5.5)"><tspan x="0" y="0" dy="0" style="font-family: Arial, sans-serif; font-size: 10px; fill: black; font-weight: bold;">Roma</tspan></text></g><g transform="translate(849.1684008047972,481)"><text text-anchor="middle" dominant-baseline="text-before-edge" transform="translate(0,-5.5)"><tspan x="0" y="0" dy="0" style="font-family: Arial, sans-serif; font-size: 10px; fill: black; font-weight: bold;">The Intouchables</tspan></text></g><g transform="translate(924.0907909151051,481)"><text text-anchor="middle" dominant-baseline="text-before-edge" transform="translate(0,-5.5)"><tspan x="0" y="0" dy="0" style="font-family: Arial, sans-serif; font-size: 10px; fill: black; font-weight: bold;">Amarcord</tspan></text></g><g transform="translate(894.9687867535343,528.264623110154)"><text text-anchor="middle" dominant-baseline="text-before-edge" transform="translate(0,-5.5)"><tspan x="0" y="0" dy="0" style="font-family: Arial, sans-serif; font-size: 10px; fill: black; font-weight: bold;">Roma</tspan></text></g><g transform="translate(805.7062436428128,561.9926799585637)"><text text-anchor="middle" dominant-baseline="text-before-edge" transform="translate(0,-5.5)"><tspan x="0" y="0" dy="0" style="font-family: Arial, sans-serif; font-size: 10px; fill: black; font-weight: bold;">Amarcord</tspan></text></g><g transform="translate(805.7062436428128,400.00732004143634)"><text text-anchor="middle" dominant-baseline="text-before-edge" transform="translate(0,-5.5)"><tspan x="0" y="0" dy="0" style="font-family: Arial, sans-serif; font-size: 10px; fill: black; font-weight: bold;">Amarcord</tspan></text></g><g transform="translate(751.5588496177791,379.91562324873274)"><text text-anchor="middle" dominant-baseline="text-before-edge" transform="translate(0,-5.5)"><tspan x="0" y="0" dy="0" style="font-family: Arial, sans-serif; font-size: 10px; fill: black; font-weight: bold;">The Intouchables</tspan></text></g><g transform="translate(589.6629379086731,764.6817329097655)"><text text-anchor="middle" dominant-baseline="text-before-edge" transform="translate(0,-5.5)"><tspan x="0" y="0" dy="0" style="font-family: Arial, sans-serif; font-size: 10px; fill: black; font-weight: bold;">Amarcord</tspan></text></g><g transform="translate(652.3742654191462,764.6817329097655)"><text text-anchor="middle" dominant-baseline="text-before-edge" transform="translate(0,-5.5)"><tspan x="0" y="0" dy="0" style="font-family: Arial, sans-serif; font-size: 10px; fill: black; font-weight: bold;">The Monster</tspan></text></g><g transform="translate(622.6821683922639,809.310940189337)"><text text-anchor="middle" dominant-baseline="text-before-edge" transform="translate(0,-5.5)"><tspan x="0" y="0" dy="0" style="font-family: Arial, sans-serif; font-size: 10px; fill: black; font-weight: bold;">Roma</tspan></text></g><g transform="translate(622.5228072723008,726.6125284194837)"><text text-anchor="middle" dominant-baseline="text-before-edge" transform="translate(0,-5.5)"><tspan x="0" y="0" dy="0" style="font-family: Arial, sans-serif; font-size: 10px; fill: black; font-weight: bold;">Lo vedi come sei... lo vedi come sei?</tspan></text></g><g transform="translate(719.539596742892,764.4962984942765)"><text text-anchor="middle" dominant-baseline="text-before-edge" transform="translate(0,-5.5)"><tspan x="0" y="0" dy="0" style="font-family: Arial, sans-serif; font-size: 10px; fill: black; font-weight: bold;">Amarcord</tspan></text></g><g transform="translate(781.9865232807258,764.4962984942765)"><text text-anchor="middle" dominant-baseline="text-before-edge" transform="translate(0,-5.5)"><tspan x="0" y="0" dy="0" style="font-family: Arial, sans-serif; font-size: 10px; fill: black; font-weight: bold;">Intervista</tspan></text></g><g transform="translate(752.6600704053553,809.0504223045987)"><text text-anchor="middle" dominant-baseline="text-before-edge" transform="translate(0,-5.5)"><tspan x="0" y="0" dy="0" style="font-family: Arial, sans-serif; font-size: 10px; fill: black; font-weight: bold;">Roma</tspan></text></g><g transform="translate(685.0345028952938,844.3026134014488)"><text text-anchor="middle" dominant-baseline="text-before-edge" transform="translate(0,-5.5)"><tspan x="0" y="0" dy="0" style="font-family: Arial, sans-serif; font-size: 10px; fill: black; font-weight: bold;">Amarcord</tspan></text></g><g transform="translate(685.0345028952938,694.7364101912432)"><text text-anchor="middle" dominant-baseline="text-before-edge" transform="translate(0,-5.5)"><tspan x="0" y="0" dy="0" style="font-family: Arial, sans-serif; font-size: 10px; fill: black; font-weight: bold;">Amarcord</tspan></text></g><g transform="translate(622.7036554168188,672.6599377212804)"><text text-anchor="middle" dominant-baseline="text-before-edge" transform="translate(0,-5.5)"><tspan x="0" y="0" dy="0" style="font-family: Arial, sans-serif; font-size: 10px; fill: black; font-weight: bold;">Intervista</tspan></text></g><g transform="translate(633.4247526397821,299.4871347240919)"><text text-anchor="middle" dominant-baseline="text-before-edge" transform="translate(0,-5.5)"><tspan x="0" y="0" dy="0" style="font-family: Arial, sans-serif; font-size: 10px; fill: black; font-weight: bold;">The Brest Fortress</tspan></text></g><g transform="translate(685.5538956945993,299.4871347240919)"><text text-anchor="middle" dominant-baseline="text-before-edge" transform="translate(0,-5.5)"><tspan x="0" y="0" dy="0" style="font-family: Arial, sans-serif; font-size: 10px; fill: black; font-weight: bold;">The Brest Fortress</tspan></text></g><g transform="translate(659.4893241671907,344.6322968870766)"><text text-anchor="middle" dominant-baseline="text-before-edge" transform="translate(0,-5.5)"><tspan x="0" y="0" dy="0" style="font-family: Arial, sans-serif; font-size: 10px; fill: black; font-weight: bold;">The Brest Fortress</tspan></text></g><g transform="translate(566.8260631651287,204.5093795788479)"><text text-anchor="middle" dominant-baseline="text-before-edge" transform="translate(0,-5.5)"><tspan x="0" y="0" dy="0" style="font-family: Arial, sans-serif; font-size: 10px; fill: black; font-weight: bold;">The Brest Fortress</tspan></text></g><g transform="translate(618.9552062199457,204.5093795788479)"><text text-anchor="middle" dominant-baseline="text-before-edge" transform="translate(0,-5.5)"><tspan x="0" y="0" dy="0" style="font-family: Arial, sans-serif; font-size: 10px; fill: black; font-weight: bold;">The Brest Fortress</tspan></text></g><g transform="translate(592.8906346925372,249.65454174183262)"><text text-anchor="middle" dominant-baseline="text-before-edge" transform="translate(0,-5.5)"><tspan x="0" y="0" dy="0" style="font-family: Arial, sans-serif; font-size: 10px; fill: black; font-weight: bold;">The Brest Fortress</tspan></text></g></g></g></svg>